<svg width="144" height="57" viewBox="0 0 144 57" fill="none" xmlns="http://www.w3.org/2000/svg">
<path d="M44.959 25.4834C44.2743 25.6042 43.5943 25.6182 42.919 25.5254C42.2706 25.4515 41.684 25.2608 41.1591 24.9533C40.6342 24.6458 40.1825 24.2195 39.804 23.6744C39.4215 23.1064 39.1578 22.4117 39.0129 21.59C38.9606 21.2933 38.9137 20.7603 38.8722 19.9911C38.8266 19.199 38.7952 18.2868 38.7779 17.2544C38.7606 16.222 38.756 15.1285 38.7643 13.974C38.7684 12.7966 38.7827 11.6763 38.807 10.613C38.8541 9.54572 38.91 8.59457 38.9746 7.75954C39.0351 6.90169 39.111 6.26468 39.2024 5.84851C39.51 4.52351 40.0505 3.45159 40.8239 2.63277C41.6161 1.7871 42.811 1.22342 44.4086 0.941716C46.0975 0.643915 47.4736 0.907238 48.5367 1.73168C49.6227 2.5521 50.377 3.9605 50.7996 5.95686C50.8398 6.18509 50.7727 6.33813 50.5981 6.41597L47.1323 7.38007C46.9122 7.46596 46.7799 7.38338 46.7357 7.13233C46.5492 6.34157 46.313 5.73606 46.0271 5.31582C45.764 4.89155 45.3358 4.73173 44.7424 4.83637C44.2859 4.91685 43.9657 5.10275 43.7817 5.39404C43.5937 5.66252 43.452 5.99343 43.3567 6.38677C43.3204 6.58143 43.2827 7.03519 43.2437 7.74805C43.2007 8.43809 43.1703 9.26708 43.1528 10.235C43.1311 11.1801 43.1122 12.2072 43.0959 13.3161C43.0985 14.3981 43.1024 15.4211 43.1076 16.385C43.1357 17.3449 43.155 18.1887 43.1656 18.9163C43.1991 19.6399 43.236 20.1159 43.2762 20.3441C43.3486 20.7549 43.4889 21.0832 43.6969 21.3289C43.9278 21.5706 44.2943 21.6471 44.7964 21.5586C45.3898 21.454 45.8268 21.1298 46.1075 20.5861C46.3841 20.0196 46.5829 19.2786 46.7039 18.363C46.7321 18.1227 46.8509 17.9959 47.0604 17.9825L50.5361 18.0756C50.6999 18.0703 50.7697 18.1992 50.7455 18.4623C50.4026 22.5233 48.4737 24.8637 44.959 25.4834Z" fill="white"/>
<path d="M31.7578 3.8428C31.7632 3.60652 31.8687 3.47027 32.0741 3.43405L35.7029 2.79418C35.954 2.74991 36.0768 2.84592 36.0714 3.0822L36.0501 26.3834C36.0446 26.6197 35.9392 26.7559 35.7338 26.7921L32.105 27.432C31.8767 27.4722 31.7653 27.3742 31.7707 27.1379L31.7578 3.8428Z" fill="white"/>
<path d="M28.9781 9.41609C29.292 11.1963 29.2616 12.8254 28.8868 14.3035C28.512 15.7815 27.7822 16.9809 26.6973 17.9017L29.628 27.5158C29.7139 27.736 29.6656 27.8622 29.483 27.8944L25.7514 28.5524C25.5232 28.5926 25.3816 28.5235 25.3265 28.3449L22.9233 19.5203L21.4512 19.7798C21.2915 19.808 21.2237 19.8906 21.2478 20.0275L21.2063 29.0008C21.2009 29.2371 21.0955 29.3733 20.8901 29.4096L17.2612 30.0494C17.033 30.0897 16.9216 29.9916 16.927 29.7554L16.9141 6.46023C16.9195 6.22395 17.0249 6.0877 17.2303 6.05148L22.2971 5.15808C23.1872 5.00113 24.0021 4.95157 24.7418 5.0094C25.4815 5.06723 26.1272 5.2593 26.6789 5.58561C27.2535 5.90789 27.7381 6.38723 28.1327 7.02363C28.5232 7.63721 28.8051 8.4347 28.9781 9.41609ZM24.7269 10.7305C24.5981 10.0001 24.3344 9.50539 23.9357 9.24623C23.5558 8.96023 23.0349 8.87558 22.373 8.99228L21.4145 9.1613C21.2775 9.18545 21.2097 9.268 21.211 9.40897L21.2262 15.9013C21.2504 16.0383 21.3195 16.0967 21.4336 16.0765L22.7688 15.8411C23.2709 15.7526 23.669 15.5412 23.963 15.207C24.2799 14.8687 24.5028 14.4646 24.6318 13.9948C24.7835 13.5209 24.8568 13.002 24.8515 12.4382C24.865 11.8475 24.8235 11.2782 24.7269 10.7305Z" fill="white"/>
<path d="M4.00877 8.73586C4.01417 8.49958 4.11958 8.36333 4.32498 8.32711L14.1503 6.59463C14.4014 6.55037 14.5242 6.64637 14.5188 6.88265L14.4922 10.1349C14.4868 10.3711 14.37 10.5094 14.1417 10.5497L8.52725 11.5396C8.39031 11.5638 8.33391 11.6443 8.35806 11.7813L8.38145 17.3191C8.35995 17.4641 8.41767 17.5245 8.55461 17.5004L13.3817 16.6492C13.6099 16.609 13.7213 16.707 13.7159 16.9433L13.7175 20.1552C13.7121 20.3915 13.6067 20.5277 13.4013 20.564L8.5742 21.4151C8.43726 21.4393 8.36946 21.5218 8.37078 21.6628L8.36796 27.4523C8.34646 27.5973 8.40418 27.6577 8.54112 27.6336L14.1556 26.6436C14.3838 26.6034 14.4953 26.7014 14.4899 26.9376L14.4975 30.1838C14.4921 30.4201 14.3866 30.5564 14.1812 30.5926L4.39011 32.319C4.16188 32.3593 4.05046 32.2612 4.05587 32.025L4.00877 8.73586Z" fill="white"/>
<path d="M131.937 37.9143C131.686 37.9586 131.563 37.8626 131.569 37.6263L131.557 18.1432C131.556 18.0023 131.487 17.9439 131.35 17.968L127.858 18.5837C127.63 18.624 127.518 18.526 127.524 18.2897L127.55 15.0375C127.556 14.8012 127.661 14.6649 127.866 14.6287L139.575 12.5642C139.826 12.52 139.949 12.616 139.943 12.8522L139.917 16.1045C139.911 16.3407 139.794 16.479 139.566 16.5192L136.074 17.135C135.937 17.1591 135.869 17.2417 135.871 17.3826L135.882 36.8657C135.877 37.102 135.771 37.2383 135.566 37.2745L131.937 37.9143Z" fill="white"/>
<path d="M118.35 16.6598C118.355 16.4235 118.46 16.2873 118.666 16.2511L122.295 15.6112C122.546 15.5669 122.669 15.6629 122.663 15.8992L122.675 35.3823C122.699 35.5192 122.768 35.5777 122.882 35.5575L128.496 34.5676C128.725 34.5273 128.836 34.6253 128.831 34.8616L128.804 38.1138C128.799 38.3501 128.693 38.4863 128.488 38.5226L118.697 40.249C118.469 40.2892 118.357 40.1912 118.363 39.9549L118.35 16.6598Z" fill="white"/>
<path d="M105.442 18.9354C105.448 18.6992 105.553 18.5629 105.759 18.5267L115.584 16.7942C115.835 16.75 115.958 16.846 115.952 17.0822L115.926 20.3345C115.92 20.5707 115.804 20.709 115.575 20.7492L109.961 21.7392C109.824 21.7634 109.768 21.8439 109.792 21.9808L109.815 27.5187C109.794 27.6637 109.851 27.7241 109.988 27.6999L114.815 26.8488C115.044 26.8086 115.155 26.9066 115.15 27.1429L115.151 30.3548C115.146 30.5911 115.04 30.7273 114.835 30.7635L110.008 31.6147C109.871 31.6388 109.803 31.7214 109.804 31.8624L109.802 37.6519C109.78 37.7969 109.838 37.8573 109.975 37.8332L115.589 36.8432C115.817 36.8029 115.929 36.901 115.923 37.1372L115.931 40.3834C115.926 40.6197 115.82 40.7559 115.615 40.7922L105.824 42.5186C105.595 42.5588 105.484 42.4608 105.489 42.2245L105.442 18.9354Z" fill="white"/>
<path d="M86.7891 22.2247C86.7945 21.9884 86.8999 21.8522 87.1053 21.8159L90.5973 21.2002C90.9168 21.1439 91.1081 21.2278 91.1711 21.452L94.4921 33.68L94.6291 33.6559L97.9838 20.2508C98.0349 20.0064 98.2088 19.8581 98.5055 19.8058L102.066 19.178C102.317 19.1337 102.44 19.2297 102.434 19.466L102.413 42.7672C102.408 43.0035 102.302 43.1397 102.097 43.1759L98.9472 43.7313C98.6961 43.7756 98.5733 43.6796 98.5787 43.4433L98.5847 29.4638L98.4135 29.494L95.9311 39.6389C95.8573 39.8873 95.7176 40.0296 95.5122 40.0658L93.6978 40.3857C93.4695 40.426 93.3353 40.332 93.2951 40.1037L90.7792 30.8401L90.608 30.8703L90.5678 44.8558C90.5624 45.0921 90.4684 45.2263 90.2858 45.2585L87.1362 45.8139C86.908 45.8541 86.7966 45.7561 86.802 45.5198L86.7891 22.2247Z" fill="white"/>
<path d="M68.0996 25.52C68.105 25.2838 68.2105 25.1475 68.4159 25.1113L71.9078 24.4956C72.2273 24.4392 72.4186 24.5232 72.4817 24.7474L75.8027 36.9754L75.9396 36.9512L79.2944 23.5461C79.3454 23.3018 79.5193 23.1535 79.816 23.1011L83.3764 22.4733C83.6275 22.4291 83.7503 22.5251 83.7449 22.7614L83.7235 46.0625C83.7181 46.2988 83.6127 46.4351 83.4073 46.4713L80.2577 47.0266C80.0067 47.0709 79.8838 46.9749 79.8892 46.7386L79.8952 32.7591L79.724 32.7893L77.2417 42.9343C77.1678 43.1826 77.0282 43.3249 76.8228 43.3611L75.0083 43.6811C74.7801 43.7213 74.6459 43.6273 74.6056 43.3991L72.0897 34.1354L71.9185 34.1656L71.8783 48.1512C71.8729 48.3874 71.7789 48.5217 71.5963 48.5539L68.4467 49.1092C68.2185 49.1495 68.1071 49.0515 68.1125 48.8152L68.0996 25.52Z" fill="white"/>
<path d="M58.9599 26.461C59.7131 26.3282 60.4387 26.3061 61.1368 26.3949C61.8349 26.4836 62.4598 26.6911 63.0115 27.0174C63.5633 27.3437 64.0304 27.7908 64.4129 28.3587C64.8143 28.8998 65.0854 29.5698 65.2262 30.3686C65.2946 30.7566 65.3422 31.36 65.3689 32.1789C65.4145 32.971 65.4439 33.8719 65.4572 34.8814C65.4705 35.891 65.471 36.9616 65.4587 38.0934C65.4465 39.2251 65.4148 40.3132 65.3636 41.3577C65.3313 42.3753 65.2828 43.3016 65.2183 44.1366C65.1537 44.9716 65.0778 45.6087 64.9904 46.0476C64.6949 47.4411 64.0671 48.552 63.1071 49.3801C62.1699 50.2043 60.9596 50.7472 59.4761 51.0088C58.7229 51.1416 57.9973 51.1636 57.2992 51.0749C56.6011 50.9862 55.9762 50.7787 55.4245 50.4524C54.8728 50.1261 54.3962 49.6924 53.9949 49.1513C53.6164 48.6062 53.3567 47.9342 53.2158 47.1354C53.1555 46.7931 53.1025 46.2259 53.057 45.4338C53.0343 44.6377 53.0143 43.7234 52.997 42.6911C52.9797 41.6587 52.9751 40.5652 52.9833 39.4106C52.9915 38.2561 53.0098 37.1586 53.0382 36.1182C53.0893 35.0737 53.1472 34.1339 53.2117 33.2989C53.2763 32.4639 53.3542 31.8383 53.4456 31.4221C54.0864 28.6499 55.9245 26.9962 58.9599 26.461ZM59.1766 47.1081C59.9526 46.9713 60.4681 46.492 60.7233 45.6705C60.8012 45.4449 60.8577 44.9643 60.8927 44.2286C60.9505 43.4889 60.9882 42.6351 61.0058 41.6672C61.0422 40.6724 61.0571 39.6225 61.0506 38.5177C61.0668 37.4087 61.0723 36.3723 61.0671 35.4084C61.0619 34.4445 61.0445 33.6121 61.0151 32.9113C60.9816 32.1877 60.9468 31.7232 60.9106 31.5178C60.8381 31.107 60.6543 30.7982 60.3589 30.5914C60.0596 30.3618 59.6817 30.2872 59.2252 30.3677C58.7688 30.4482 58.4217 30.6153 58.184 30.869C57.9464 31.1227 57.7631 31.4845 57.6341 31.9543C57.5791 32.1759 57.534 32.6544 57.499 33.3901C57.4828 34.099 57.4565 34.9508 57.4201 35.9456C57.4025 36.9135 57.3856 37.9519 57.3693 39.0609C57.3719 40.1429 57.3778 41.1773 57.387 42.1641C57.4151 43.124 57.4324 43.9563 57.439 44.6611C57.4685 45.3619 57.4973 45.7922 57.5255 45.952C57.5979 46.3628 57.7724 46.685 58.0489 46.9186C58.3442 47.1254 58.7201 47.1886 59.1766 47.1081Z" fill="white"/>
<path d="M50.6109 33.6871C50.9248 35.4673 50.8944 37.0964 50.5196 38.5745C50.1448 40.0525 49.415 41.2519 48.3302 42.1727L51.2609 51.7868C51.3467 52.007 51.2984 52.1332 51.1158 52.1654L47.3842 52.8234C47.156 52.8636 47.0144 52.7945 46.9594 52.6159L44.5562 43.7913L43.0841 44.0508C42.9243 44.079 42.8565 44.1616 42.8806 44.2985L42.8391 53.2718C42.8337 53.5081 42.7283 53.6443 42.5229 53.6805L38.894 54.3204C38.6658 54.3607 38.5544 54.2626 38.5598 54.0264L38.5469 30.7312C38.5523 30.4949 38.6577 30.3587 38.8631 30.3225L43.9299 29.4291C44.82 29.2721 45.6349 29.2226 46.3746 29.2804C47.1143 29.3382 47.76 29.5303 48.3117 29.8566C48.8863 30.1789 49.3709 30.6582 49.7655 31.2946C50.1561 31.9082 50.4379 32.7057 50.6109 33.6871ZM46.3597 35.0015C46.2309 34.2711 45.9672 33.7764 45.5685 33.5172C45.1886 33.2312 44.6677 33.1466 44.0059 33.2633L43.0473 33.4323C42.9103 33.4564 42.8425 33.539 42.8439 33.68L42.8591 40.1723C42.8832 40.3093 42.9523 40.3677 43.0665 40.3475L44.4016 40.1121C44.9037 40.0236 45.3018 39.8122 45.5959 39.478C45.9127 39.1397 46.1356 38.7356 46.2646 38.2658C46.4164 37.7919 46.4896 37.273 46.4843 36.7092C46.4978 36.1185 46.4563 35.5492 46.3597 35.0015Z" fill="white"/>
<path d="M30.2929 35.787C30.1559 35.8112 30.0995 35.8917 30.1237 36.0287L30.1209 41.8182C30.0994 41.9632 30.1571 42.0236 30.294 41.9995L35.1553 41.1423C35.3608 41.1061 35.4608 41.2061 35.4554 41.4424L35.4509 44.6201C35.4455 44.8564 35.3401 44.9926 35.1347 45.0288L30.2733 45.886C30.1364 45.9102 30.08 45.9907 30.1042 46.1277L30.1008 55.5178C30.0954 55.7541 29.99 55.8903 29.7846 55.9265L26.1557 56.5664C25.9275 56.6067 25.8161 56.5086 25.8215 56.2724L25.8086 32.9772C25.814 32.7409 25.9194 32.6047 26.1248 32.5685L35.916 30.842C36.167 30.7978 36.2899 30.8938 36.2844 31.1301L36.2578 34.3823C36.2524 34.6186 36.1356 34.7568 35.9074 34.7971L30.2929 35.787Z" fill="white"/>
</svg>
